<svg width="359" height="81" viewBox="0 0 359 81" fill="none" xmlns="http://www.w3.org/2000/svg">
<path d="M3.99 1.58V4.82H9.99V1.58H3.99ZM2.43 1.58V12.38C2.43 16.73 2.31 22.7 0.69 26.84C1.32 27.17 2.61 28.25 3.12 28.85C5.07 24.26 5.37 17.09 5.37 12.38V1.58H2.43ZM7.89 1.58V24.98C7.89 25.37 7.74 25.52 7.41 25.52C7.02 25.52 5.85 25.55 4.77 25.49C5.16 26.33 5.55 27.77 5.64 28.64C7.56 28.64 8.85 28.58 9.75 28.04C10.65 27.5 10.89 26.57 10.89 25.04V1.58H7.89ZM4.86 16.94L6.06 19.79C7.35 18.53 8.58 17.24 9.81 15.95L8.85 14C7.32 15.2 5.91 16.28 4.86 16.94ZM4.38 9.23C5.25 10.25 6.3 11.66 6.78 12.53L8.79 11.12C8.25 10.25 7.2 8.96 6.3 8L4.38 9.23ZM19.95 0.919999C19.26 2.36 17.97 4.46 16.77 6.26C18.39 8.27 19.83 10.49 20.55 12.02L23.46 10.82C22.8 9.59 21.48 7.76 20.16 6.2C21.12 4.82 22.17 3.2 23.07 1.64L19.95 0.919999ZM25.38 0.949999C24.66 2.36 23.37 4.46 22.11 6.23C23.85 8.18 25.38 10.4 26.13 11.93L29.04 10.61C28.35 9.41 26.97 7.67 25.65 6.17C26.61 4.82 27.66 3.23 28.56 1.67L25.38 0.949999ZM12.3 13.52V28.7H15.48V16.43H24.96V28.55H28.29V13.52H12.3ZM13.8 24.62V27.53H26.52V24.62H13.8ZM18.18 11.15C17.82 12.26 17.16 13.79 16.53 14.93L19.29 15.65C20.04 14.72 21.03 13.31 21.96 11.84L18.18 11.15ZM21.93 16.4C20.55 18.65 18.06 20.99 15.42 22.43C16.02 22.94 16.86 23.78 17.28 24.38C20.01 22.76 22.68 20.33 24.36 17.69L21.93 16.4ZM15.9 18.68C18.36 20.27 21.45 22.67 22.86 24.26L24.9 22.25C23.37 20.69 20.22 18.44 17.79 16.94L15.9 18.68ZM14.61 0.62C13.95 2.15 12.6 4.4 11.37 6.26C12.99 8.42 14.43 10.76 15.12 12.38L18.06 11.18C17.4 9.86 16.11 7.91 14.79 6.23C15.75 4.73 16.83 2.99 17.76 1.34L14.61 0.62ZM41.73 19.13V22.16H58.59V19.13H41.73ZM48.39 17.39C48 21.86 47.13 24.53 40.41 25.97C41.07 26.6 41.91 27.92 42.24 28.76C49.98 26.81 51.39 23.18 51.9 17.39H48.39ZM46.29 13.91H53.85V15.2H46.29V13.91ZM46.29 10.37H53.85V11.66H46.29V10.37ZM43.05 7.97V17.6H57.24V7.97H43.05ZM41.76 2.84V5.72H50.16V2.84H41.76ZM44.88 0.649999V7.4H48.06V0.649999H44.88ZM52.74 0.62V7.37H55.95V0.62H52.74ZM50.76 2.81V5.69H58.86V2.81H50.76ZM50.04 24.38C52.35 25.61 55.59 27.47 57.18 28.61L59.34 26.03C57.63 24.95 54.3 23.21 52.11 22.1L50.04 24.38ZM33.99 1.58V4.82H39.99V1.58H33.99ZM32.43 1.58V12.38C32.43 16.73 32.31 22.7 30.69 26.84C31.35 27.2 32.67 28.31 33.18 28.88C35.13 24.29 35.46 17.12 35.46 12.38V1.58H32.43ZM37.92 1.58V25.04C37.92 25.37 37.83 25.52 37.5 25.52C37.14 25.52 36.18 25.55 35.19 25.49C35.61 26.33 35.97 27.77 36.03 28.61C37.8 28.64 38.97 28.55 39.84 28.01C40.68 27.47 40.92 26.54 40.92 25.07V1.58H37.92ZM34.83 16.94L36.03 19.82C37.32 18.56 38.58 17.3 39.84 16.01L38.88 14.09C37.35 15.23 35.88 16.28 34.83 16.94ZM34.35 9.23C35.25 10.25 36.3 11.72 36.78 12.62L38.79 11.15C38.28 10.31 37.2 8.99 36.3 8L34.35 9.23ZM76.32 14.78L73.14 14.99C74.73 23.48 77.79 27.38 87.24 28.52C87.63 27.5 88.5 25.97 89.19 25.19C80.58 24.59 77.52 21.47 76.32 14.78ZM72.93 12.74C72.48 19.43 71.7 23.63 61.11 25.58C61.8 26.36 62.64 27.74 62.97 28.67C74.61 26.18 76.08 20.81 76.68 12.74H72.93ZM72.99 0.529999C72.54 6.98 71.76 10.55 61.59 12.23C62.22 12.98 63.06 14.3 63.33 15.2C74.64 13.07 76.11 8.33 76.68 0.529999H72.99ZM82.35 2.45C81.6 3.95 80.28 5.96 79.2 7.25L82.23 8.24C83.37 7.04 84.75 5.27 86.01 3.44L82.35 2.45ZM82.08 15.23C81.33 16.85 80.01 19.01 78.9 20.42L81.87 21.5C83.01 20.21 84.45 18.26 85.71 16.34L82.08 15.23ZM73.17 8.39C77.28 10.31 82.98 13.31 85.71 15.32L87.57 12.11C84.75 10.16 78.9 7.37 74.88 5.66L73.17 8.39ZM63.45 3.95C64.62 5.48 66.24 7.61 66.99 8.9L69.93 6.8C69.12 5.57 67.41 3.56 66.21 2.12L63.45 3.95ZM63.06 17.03C64.35 18.65 66.06 20.87 66.87 22.19L69.81 20.21C68.94 18.89 67.11 16.79 65.82 15.29L63.06 17.03ZM99.51 2.6V5.12H106.86V8.36H109.77V2.6H99.51ZM98.73 6.74V9.5H111.36V6.74H98.73ZM102.51 0.529999C102.21 3.05 101.67 6.32 101.19 8.39H104.28C104.7 6.44 105.21 3.29 105.57 0.739998L102.51 0.529999ZM102.18 12.86H107.55V14.54H102.18V12.86ZM99.6 10.55V16.85H110.4V10.55H99.6ZM104.61 16.28V28.7H107.79V16.28H104.61ZM111.51 2.24V5.45H118.62V2.24H111.51ZM111.03 10.25V13.52H119.13V10.25H111.03ZM113.7 11.81V24.77C113.7 25.1 113.61 25.19 113.25 25.19C112.92 25.19 111.84 25.19 110.79 25.16C111.18 26.18 111.57 27.59 111.66 28.58C113.49 28.58 114.84 28.49 115.83 27.95C116.85 27.38 117.06 26.42 117.06 24.8V11.81H113.7ZM95.52 0.499999C94.5 2.39 92.4 4.79 90.54 6.26C91.08 6.92 91.92 8.27 92.34 9.02C94.62 7.16 97.11 4.34 98.76 1.73L95.52 0.499999ZM96 6.83C94.65 9.83 92.43 12.86 90.33 14.87C90.9 15.65 91.89 17.39 92.22 18.14C94.71 15.62 97.41 11.6 99.12 7.94L96 6.83ZM93.96 13.4V28.7H97.2V10.16V10.13L93.96 13.4ZM98.49 18.26V20.81H111.09V18.26H98.49ZM100.05 22.85L99.51 25.43H111.66V22.85H100.05ZM99.6 20.36C99.42 22.01 99.09 24.05 98.79 25.43H101.67C101.94 24.14 102.18 22.22 102.39 20.6L99.6 20.36ZM124.8 12.92V15.71H132.21V12.92H124.8ZM122.07 3.26V6.29H131.49V3.26H122.07ZM120.9 8.3V11.39H135.57V8.3H120.9ZM125.46 0.529999V9.86H128.79V0.529999H125.46ZM133.41 1.25C130.98 7.46 126.36 12.35 120.51 15.14C121.23 15.77 122.46 17.18 122.94 17.87C128.88 14.6 133.83 9.2 136.71 2.24L133.41 1.25ZM126.9 17.81V25.19C126.9 25.52 126.78 25.61 126.39 25.61C126 25.61 124.71 25.64 123.54 25.58C123.99 26.45 124.44 27.71 124.56 28.64C126.48 28.64 127.89 28.61 128.94 28.13C130.02 27.65 130.29 26.81 130.29 25.28V17.81H126.9ZM131.31 12.92V13.49C130.44 14.78 128.52 16.7 126.9 17.81C127.41 18.23 128.22 19.1 128.61 19.64C130.68 18.32 133.02 16.19 134.67 14.27L132.69 12.74L132.03 12.92H131.31ZM120.84 19.97L121.2 23.18C125.04 22.82 130.5 22.28 135.57 21.77L135.54 18.71C130.26 19.19 124.59 19.7 120.84 19.97ZM138.06 6.02V9.35H149.07V6.02H138.06ZM138.48 0.499999C137.67 5.75 136.11 10.79 133.56 13.82C134.37 14.39 135.84 15.71 136.44 16.37C139.2 12.8 141.09 7.07 142.11 1.07L138.48 0.499999ZM143.73 8.03C142.83 16.91 140.22 22.55 133.38 25.55C134.04 26.33 135.09 27.98 135.45 28.82C143.04 25.04 146.13 18.62 147.42 8.36L143.73 8.03ZM140.04 8.6L136.77 9.11C138.24 18.11 140.85 25.1 146.88 28.7C147.42 27.71 148.56 26.3 149.4 25.58C143.85 22.7 141.24 16.22 140.04 8.6ZM151.26 19.49V22.34H178.74V19.49H151.26ZM152.1 2.45V5.18H177.66V2.45H152.1ZM168.51 17.75V25.13C168.51 25.49 168.36 25.61 167.88 25.64C167.4 25.64 165.66 25.64 164.22 25.58C164.67 26.45 165.12 27.77 165.24 28.7C167.55 28.7 169.23 28.67 170.46 28.22C171.66 27.74 171.99 26.87 171.99 25.25V17.75H168.51ZM163.17 0.529999V16.7H166.71V0.529999H163.17ZM156.06 23.36C157.71 24.5 159.69 26.21 160.59 27.38L163.23 25.1C162.27 23.93 160.17 22.34 158.52 21.29L156.06 23.36ZM157.86 11.6H172.26V12.74H157.86V11.6ZM157.86 8.42H172.26V9.56H157.86V8.42ZM154.47 6.26V14.93H175.8V6.26H154.47ZM169.23 15.41C171.42 16.34 174.06 17.99 175.47 19.19L177.63 17.36C176.19 16.25 173.55 14.69 171.33 13.79L169.23 15.41ZM152.55 16.04L152.67 18.62C158.43 18.56 167.01 18.41 175.05 18.17L175.2 15.95C166.92 16.04 158.07 16.07 152.55 16.04ZM182.07 2.9V9.74H185.58V6.17H204.36V9.74H208.05V2.9H182.07ZM186.48 7.82V10.88H203.4V7.82H186.48ZM191.31 13.04C196.11 17.03 195.9 23.33 194.49 24.68C194.07 25.28 193.59 25.4 192.87 25.4C192.18 25.4 191.22 25.37 190.14 25.25C190.77 26.24 191.07 27.65 191.13 28.64C192 28.67 192.9 28.7 193.56 28.67C195.12 28.67 196.08 28.34 197.13 27.29C199.83 25.01 200.01 16.37 194.07 11.54L191.31 13.04ZM194.52 8.87C191.91 11.39 186.78 13.22 182.01 14.18C182.58 14.87 183.51 16.31 183.84 17C188.85 15.65 194.31 13.34 197.49 10.1L194.52 8.87ZM193.29 14.63C190.77 16.46 185.61 18.44 181.77 19.28C182.4 20.03 183.15 21.23 183.54 22.04C187.44 20.81 192.66 18.47 195.57 16.34L193.29 14.63ZM195.06 18.08C192.15 20.69 186.21 23.36 181.35 24.44C182.04 25.25 182.79 26.54 183.21 27.44C188.1 25.91 194.19 22.91 197.55 19.94L195.06 18.08ZM202.26 16.37L199.08 17.09C200.52 21.8 203.01 25.49 207 27.41C207.48 26.48 208.56 25.13 209.34 24.47C205.83 23.03 203.43 19.97 202.26 16.37ZM203.22 11.36C201.15 13.4 197.73 15.92 195.15 17.42L197.49 19.49C200.1 18.11 203.49 15.83 206.19 13.73L203.22 11.36ZM192.24 1.28C192.84 2.45 193.41 4.04 193.62 5.06L197.64 3.83C197.4 2.81 196.68 1.31 196.05 0.2L192.24 1.28ZM18.6 54.12V58.24H35.12V54.12H18.6ZM15.56 61.24V65.52H38.48V61.24H15.56ZM15.44 46.72V54.64H19.88V50.84H33.72V54.64H38.28V46.72H15.44ZM20.52 63.32C20.16 69.6 19.36 73.52 12.04 75.72C13.04 76.64 14.28 78.44 14.76 79.6C23.28 76.64 24.68 71.28 25.12 63.32H20.52ZM27.64 63.2V73.72C27.64 77.72 28.4 79.04 31.96 79.04C32.64 79.04 34.04 79.04 34.76 79.04C37.6 79.04 38.72 77.52 39.08 72C37.88 71.68 36 71 35.12 70.24C35.04 74.36 34.88 75 34.24 75C33.96 75 33.04 75 32.8 75C32.24 75 32.16 74.84 32.16 73.68V63.2H27.64ZM23.12 42.92C24.04 44.64 25 47.04 25.32 48.6L30.08 47.04C29.64 45.56 28.64 43.32 27.68 41.6L23.12 42.92ZM2.72 43.6V79.48H6.92V47.88H11.92V43.6H2.72ZM10.8 43.6V44.96C10.24 47.44 9 52.68 7.84 56.2C10.12 59 10.64 61.64 10.64 63.56C10.64 64.72 10.4 65.6 9.92 65.96C9.64 66.16 9.24 66.24 8.84 66.28C8.36 66.32 7.8 66.28 7.12 66.24C7.76 67.4 8.16 69.2 8.16 70.36C9.08 70.36 10.04 70.36 10.76 70.24C11.64 70.12 12.4 69.84 13.04 69.36C14.32 68.4 14.84 66.68 14.84 64.08C14.84 61.72 14.36 58.88 11.92 55.72C13.08 52.6 14.36 48.6 15.4 45.2L12.28 43.44L11.6 43.6H10.8ZM63.2 55.44V60.08H78.76V55.44H63.2ZM70.32 58.84V79.36H75.08V58.84H70.32ZM43.4 45.64V60.2C43.4 65.4 43.2 72.16 40.64 76.76C41.68 77.32 43.72 78.96 44.56 79.84C47.68 74.64 48.12 66.12 48.12 60.2V45.64H43.4ZM75.08 42.52C71.6 43.88 66.16 45.08 61.24 45.72C61.8 46.8 62.44 48.6 62.64 49.76C67.72 49.2 73.72 48.24 78.24 46.68L75.08 42.52ZM46.04 52.12V56.4H53.84V61.24H46.04V65.52H58.48V52.12H46.04ZM57.04 42.8C53.6 44.08 48.2 45.08 43.4 45.64C43.92 46.72 44.52 48.44 44.72 49.56C49.72 49.16 55.64 48.32 60.08 46.88L57.04 42.8ZM61.24 45.72V58.2C61.24 64 60.76 71.44 55.2 76.48C56.28 77.12 58.24 78.8 59 79.72C65.16 74.24 66.16 64.84 66.16 58.24V45.72H61.24ZM83.88 47.36V71.4H88.64V51.96H111.32V71.16H116.32V47.36H83.88ZM87 56.04V60.44H113.68V56.04H87ZM87 64.68V69.28H113.76V64.68H87ZM97.36 42.04V79.6H102.36V42.04H97.36ZM136.48 44.96V48.4H158.16V44.96H136.48ZM137.48 49.96V53.2H157.4V49.96H137.48ZM135.88 54.92V58.36H158.68V54.92H135.88ZM144.76 42.04V56.8H149.44V42.04H144.76ZM152.32 60V75.24C152.32 75.68 152.2 75.84 151.68 75.84C151.16 75.84 149.48 75.84 148 75.76C148.52 76.84 149.08 78.44 149.24 79.56C151.8 79.6 153.68 79.56 155.04 78.92C156.4 78.32 156.8 77.24 156.8 75.28V60H152.32ZM140.24 65.36V68.52H154.24V65.36H140.24ZM140.24 70.4V73.52H154.24V70.4H140.24ZM137.76 60V67.16C137.76 70.28 137.52 74.08 135.16 76.88C136.04 77.44 137.84 79.12 138.48 79.96C141.48 76.6 142.08 71.24 142.08 67.28V60H137.76ZM140.36 60V63.56H153.6V60H140.36ZM122.52 54.08V57.72H134.6V54.08H122.52ZM124.8 65.24V69.04H130.48V73.6H124.8V77.4H134.6V65.24H124.8ZM122.48 65.24V79H126.56V65.24H122.48ZM122.52 59.6V63.24H134.6V59.6H122.52ZM121.44 48.6V52.4H135.68V48.6H121.44ZM125.68 43.36C126.4 45.08 127.32 47.44 127.64 48.92L131.88 47.52C131.44 46.08 130.52 43.84 129.72 42.12L125.68 43.36ZM163.36 43.68V48.36H184.84V43.68H163.36ZM191.6 55V55.92C189 66.68 180.88 73.16 170.36 75.68C171.36 76.72 172.6 78.8 173.2 80.16C184.92 76.68 193.6 69.8 196.96 56.28L193.48 54.8L192.56 55H191.6ZM169.76 45.32V51.44C169.76 57.92 168.92 68.08 160.96 74.84C162.04 75.76 163.8 77.76 164.48 79.04C173.72 70.96 174.76 59.28 174.76 51.48V45.32H169.76ZM183.72 43.68C182.92 48.08 181.64 53.56 180.56 57.16H186C186.92 53.68 188 48.24 188.84 43.68H183.72ZM172.8 55L172 59.56H192.68V55H172.8ZM178.92 57.96L174.72 59.12C178.48 69.52 184.76 76.64 195.6 79.76C196.32 78.36 197.8 76.24 198.92 75.2C188.6 72.76 182.08 66.52 178.92 57.96ZM209 55.96V60.4H230.76V55.96H209ZM209 64.52V68.96H230.76V64.52H209ZM209 73.12V77.56H230.76V73.12H209ZM205.72 47.24V79.56H210.6V51.84H229.68V79.48H234.8V47.24H205.72ZM217.08 42C216.8 44.08 216.12 46.88 215.48 48.88L219.88 49.68C220.76 47.92 221.92 45.28 222.88 42.6L217.08 42ZM268.16 45.6C270.32 47.56 272.84 50.36 273.88 52.28L277.76 49.56C276.56 47.68 273.96 45 271.76 43.12L268.16 45.6ZM241.96 53.4V57.96H278.08V53.4H241.96ZM241.2 64.72L242.4 69.56C247.56 68.52 254.52 67.12 261 65.76L260.64 61.4C253.64 62.68 246.04 64 241.2 64.72ZM249.56 46.96V73.92C249.56 74.6 249.32 74.8 248.6 74.8C247.88 74.84 245.56 74.84 243.28 74.72C244 76.08 244.8 78.24 245 79.6C248.28 79.6 250.64 79.44 252.24 78.68C253.88 77.92 254.4 76.6 254.4 74V46.96H249.56ZM257.76 42.28C253.64 43.68 247.4 44.92 241.76 45.68C242.32 46.76 242.92 48.56 243.16 49.68C248.96 49.04 255.8 47.96 261 46.36L257.76 42.28ZM261.68 42.36C261.8 60.32 264.92 79.76 273.2 79.76C276.84 79.76 278.36 78 279.12 70.92C277.84 70.4 276.2 69.28 275.2 68.16C274.96 72.92 274.52 74.88 273.68 74.88C270.04 74.88 266.44 58.48 266.72 42.36H261.68ZM272.56 59.28C269 65.88 262.48 71.32 255.64 74.44C256.84 75.52 258.16 77.12 258.88 78.32C266.12 74.48 272.64 68.52 276.8 61.08L272.56 59.28ZM313.32 49.8C312.92 52.72 312 56.76 311.12 59.32L314.84 60.24C315.76 57.84 316.88 54.08 317.88 50.72L313.32 49.8ZM298.12 50.96C298.92 53.92 299.64 57.8 299.72 60.32L303.76 59.4C303.6 56.88 302.88 53.08 301.96 50.12L298.12 50.96ZM297.76 44.04V48.48H318.04V44.04H297.76ZM296.4 61.36V65.92H318.8V61.36H296.4ZM305.2 45.6V79.56H309.92V45.6H305.2ZM283.08 54.24V57.88H294.84V54.24H283.08ZM283.08 59.68V63.28H294.88V59.68H283.08ZM281.52 48.68V52.48H296.52V48.68H281.52ZM285.08 65.2V69.04H291.12V73.52H285.08V77.36H294.92V65.2H285.08ZM283.12 65.2V79.08H286.88V65.2H283.12ZM285.52 43.64C286.48 45.36 287.64 47.8 288.12 49.32L291.68 47.2C291.12 45.72 289.96 43.52 288.92 41.84L285.52 43.64ZM329.64 42.2C327.6 47.92 324.16 53.6 320.52 57.24C321.32 58.4 322.64 61.04 323.08 62.2C327.44 57.64 331.6 50.44 334.2 43.6L329.64 42.2ZM325.6 53.24V79.56H330.2V48.72L330.16 48.68L325.6 53.24ZM334.96 61.8V79.6H339.72V66.36H351.6V79.44H356.56V61.8H334.96ZM343.12 42V64.24H348.12V42H343.12ZM333.12 50.2V54.84H358.76V50.2H333.12ZM337.28 73.36V77.92H354.36V73.36H337.28Z" fill="#F259A6"/>
</svg>
